<?xml version="1.0" standalone="no"?>
<!DOCTYPE svg PUBLIC "-//W3C//DTD SVG 20010904//EN"
 "http://www.w3.org/TR/2001/REC-SVG-20010904/DTD/svg10.dtd">
<svg version="1.0" xmlns="http://www.w3.org/2000/svg"
 width="700.000000pt" height="700.000000pt" viewBox="0 0 700.000000 700.000000"
 preserveAspectRatio="xMidYMid meet">
<metadata>
Created by potrace 1.14, written by Peter Selinger 2001-2017
</metadata>
<g transform="translate(0.000000,700.000000) scale(0.100000,-0.100000)"
fill="#000000" stroke="none">
<path d="M3505 5014 c-464 -70 -848 -310 -1088 -679 l-52 -80 -190 0 c-173 -1
-198 -3 -287 -27 -216 -59 -378 -153 -533 -312 -149 -153 -237 -308 -297 -523
-19 -68 -22 -103 -22 -273 0 -170 3 -205 22 -273 60 -215 148 -370 297 -523
148 -151 309 -248 510 -306 78 -22 91 -23 505 -23 l425 0 5 160 c5 159 5 160
42 238 64 133 174 225 315 262 80 21 593 21 672 0 176 -46 314 -190 350 -363
6 -29 11 -109 11 -177 l0 -125 578 0 c615 0 636 2 747 51 179 79 328 235 407
425 l33 79 0 195 0 195 -33 79 c-79 190 -228 346 -407 425 -67 30 -199 61
-257 61 l-48 0 0 69 c0 173 -68 433 -163 619 -207 406 -572 691 -1027 799 -89
21 -135 25 -295 28 -104 2 -203 1 -220 -1z m77 -1385 c86 -18 158 -58 224
-123 138 -139 171 -340 83 -515 -32 -65 -123 -157 -185 -189 -178 -91 -392
-58 -527 81 -93 95 -134 211 -124 350 18 260 272 450 529 396z m-902 -181 c46
-13 130 -70 157 -106 48 -65 66 -116 71 -197 3 -65 0 -91 -18 -137 -28 -75
-96 -150 -168 -185 -50 -24 -69 -28 -147 -28 -78 0 -97 4 -147 28 -72 35 -140
110 -168 185 -29 76 -24 194 11 267 71 150 241 221 409 173z m1850 0 c46 -13
130 -70 157 -106 48 -65 66 -116 71 -197 3 -65 0 -91 -18 -137 -28 -75 -96
-150 -168 -185 -50 -24 -69 -28 -147 -28 -78 0 -97 4 -147 28 -72 35 -140 110
-168 185 -31 80 -25 195 14 270 77 150 238 218 406 170z m-1768 -729 c29 -6
65 -18 81 -25 36 -19 37 -57 1 -81 -42 -27 -122 -151 -144 -221 -12 -39 -20
-93 -20 -136 0 -43 -5 -77 -12 -84 -9 -9 -88 -12 -293 -12 -352 0 -328 -11
-324 144 4 103 7 117 38 181 58 117 160 200 286 231 63 16 317 18 387 3z
m1850 0 c127 -27 240 -115 297 -232 34 -68 56 -195 45 -260 -11 -67 -14 -68
-345 -65 l-294 3 -6 92 c-11 143 -44 224 -134 321 -30 33 -55 69 -55 79 0 22
46 46 115 62 58 13 315 13 377 0z"/>
</g>
</svg>
