<svg xmlns="http://www.w3.org/2000/svg" xmlns:xlink="http://www.w3.org/1999/xlink" width="500" zoomAndPan="magnify" viewBox="0 0 375 374.999991" height="500" preserveAspectRatio="xMidYMid meet" version="1.0"><defs><g/><clipPath id="bb4a3cd4d0"><path d="M 37.5 131.109375 L 150 131.109375 L 150 243.609375 L 37.5 243.609375 Z M 37.5 131.109375 " clip-rule="nonzero"/></clipPath><clipPath id="8ccbe235f3"><path d="M 54.0625 162.992188 L 133.511719 162.992188 L 133.511719 211.742188 L 54.0625 211.742188 Z M 54.0625 162.992188 " clip-rule="nonzero"/></clipPath><clipPath id="cbb97dcbd4"><path d="M 70.382812 199 L 84 199 L 84 210 L 70.382812 210 Z M 70.382812 199 " clip-rule="nonzero"/></clipPath><clipPath id="8131a50e0c"><path d="M 103 199 L 117.632812 199 L 117.632812 210 L 103 210 Z M 103 199 " clip-rule="nonzero"/></clipPath><clipPath id="c7368a63d5"><path d="M 86 185.21875 L 101 185.21875 L 101 200 L 86 200 Z M 86 185.21875 " clip-rule="nonzero"/></clipPath><clipPath id="ffb0759d75"><path d="M 82 200 L 106 200 L 106 212.96875 L 82 212.96875 Z M 82 200 " clip-rule="nonzero"/></clipPath></defs><g fill="#e3e7f8" fill-opacity="1"><g transform="translate(165.079138, 202.874987)"><g><path d="M 18.171875 0.453125 C 13.722656 0.453125 10.253906 -0.789062 7.765625 -3.28125 C 5.285156 -5.78125 4.046875 -9.363281 4.046875 -14.03125 L 4.046875 -32.203125 L 10.03125 -32.203125 L 10.03125 -14.265625 C 10.03125 -7.941406 12.757812 -4.78125 18.21875 -4.78125 C 23.644531 -4.78125 26.359375 -7.941406 26.359375 -14.265625 L 26.359375 -32.203125 L 32.25 -32.203125 L 32.25 -14.03125 C 32.25 -9.363281 31.015625 -5.78125 28.546875 -3.28125 C 26.078125 -0.789062 22.617188 0.453125 18.171875 0.453125 Z M 18.171875 0.453125 "/></g></g></g><g fill="#e3e7f8" fill-opacity="1"><g transform="translate(199.300084, 202.874987)"><g><path d="M 17.703125 -24.84375 C 20.804688 -24.84375 23.289062 -23.9375 25.15625 -22.125 C 27.03125 -20.3125 27.96875 -17.628906 27.96875 -14.078125 L 27.96875 0 L 22.21875 0 L 22.21875 -13.34375 C 22.21875 -15.488281 21.710938 -17.101562 20.703125 -18.1875 C 19.691406 -19.28125 18.25 -19.828125 16.375 -19.828125 C 14.257812 -19.828125 12.585938 -19.191406 11.359375 -17.921875 C 10.128906 -16.648438 9.515625 -14.816406 9.515625 -12.421875 L 9.515625 0 L 3.765625 0 L 3.765625 -24.5625 L 9.25 -24.5625 L 9.25 -21.390625 C 10.195312 -22.523438 11.390625 -23.382812 12.828125 -23.96875 C 14.273438 -24.550781 15.898438 -24.84375 17.703125 -24.84375 Z M 17.703125 -24.84375 "/></g></g></g><g fill="#e3e7f8" fill-opacity="1"><g transform="translate(228.737433, 202.874987)"><g><path d="M 3.765625 -24.5625 L 9.515625 -24.5625 L 9.515625 0 L 3.765625 0 Z M 6.671875 -28.609375 C 5.628906 -28.609375 4.753906 -28.9375 4.046875 -29.59375 C 3.335938 -30.257812 2.984375 -31.082031 2.984375 -32.0625 C 2.984375 -33.039062 3.335938 -33.859375 4.046875 -34.515625 C 4.753906 -35.179688 5.628906 -35.515625 6.671875 -35.515625 C 7.710938 -35.515625 8.582031 -35.195312 9.28125 -34.5625 C 9.988281 -33.9375 10.34375 -33.148438 10.34375 -32.203125 C 10.34375 -31.191406 10 -30.335938 9.3125 -29.640625 C 8.625 -28.953125 7.742188 -28.609375 6.671875 -28.609375 Z M 6.671875 -28.609375 "/></g></g></g><g fill="#e3e7f8" fill-opacity="1"><g transform="translate(239.960321, 202.874987)"><g><path d="M 14.3125 0.453125 C 11.820312 0.453125 9.421875 0.101562 7.109375 -0.59375 C 4.796875 -1.300781 2.960938 -2.238281 1.609375 -3.40625 L 3.6875 -8.046875 C 5 -7.003906 6.613281 -6.15625 8.53125 -5.5 C 10.445312 -4.84375 12.375 -4.515625 14.3125 -4.515625 C 16.695312 -4.515625 18.476562 -4.894531 19.65625 -5.65625 C 20.84375 -6.425781 21.4375 -7.4375 21.4375 -8.6875 C 21.4375 -9.613281 21.101562 -10.375 20.4375 -10.96875 C 19.78125 -11.570312 18.945312 -12.039062 17.9375 -12.375 C 16.925781 -12.707031 15.546875 -13.09375 13.796875 -13.53125 C 11.347656 -14.101562 9.363281 -14.679688 7.84375 -15.265625 C 6.320312 -15.847656 5.015625 -16.757812 3.921875 -18 C 2.835938 -19.25 2.296875 -20.929688 2.296875 -23.046875 C 2.296875 -24.828125 2.78125 -26.441406 3.75 -27.890625 C 4.71875 -29.347656 6.175781 -30.503906 8.125 -31.359375 C 10.070312 -32.222656 12.453125 -32.65625 15.265625 -32.65625 C 17.234375 -32.65625 19.164062 -32.410156 21.0625 -31.921875 C 22.96875 -31.429688 24.609375 -30.726562 25.984375 -29.8125 L 24.109375 -25.15625 C 22.691406 -25.988281 21.21875 -26.617188 19.6875 -27.046875 C 18.15625 -27.472656 16.664062 -27.6875 15.21875 -27.6875 C 12.863281 -27.6875 11.109375 -27.285156 9.953125 -26.484375 C 8.804688 -25.691406 8.234375 -24.640625 8.234375 -23.328125 C 8.234375 -22.398438 8.5625 -21.644531 9.21875 -21.0625 C 9.882812 -20.476562 10.722656 -20.019531 11.734375 -19.6875 C 12.742188 -19.351562 14.125 -18.96875 15.875 -18.53125 C 18.257812 -17.976562 20.21875 -17.40625 21.75 -16.8125 C 23.289062 -16.21875 24.601562 -15.304688 25.6875 -14.078125 C 26.78125 -12.847656 27.328125 -11.191406 27.328125 -9.109375 C 27.328125 -7.328125 26.84375 -5.710938 25.875 -4.265625 C 24.90625 -2.828125 23.4375 -1.679688 21.46875 -0.828125 C 19.507812 0.0234375 17.125 0.453125 14.3125 0.453125 Z M 14.3125 0.453125 "/></g></g></g><g fill="#e3e7f8" fill-opacity="1"><g transform="translate(266.821892, 202.874987)"><g><path d="M 27.546875 -24.5625 L 27.546875 0 L 22.078125 0 L 22.078125 -3.125 C 21.160156 -2.019531 20.007812 -1.164062 18.625 -0.5625 C 17.25 0.03125 15.765625 0.328125 14.171875 0.328125 C 10.890625 0.328125 8.304688 -0.582031 6.421875 -2.40625 C 4.535156 -4.238281 3.59375 -6.945312 3.59375 -10.53125 L 3.59375 -24.5625 L 9.34375 -24.5625 L 9.34375 -11.3125 C 9.34375 -9.101562 9.835938 -7.453125 10.828125 -6.359375 C 11.828125 -5.273438 13.25 -4.734375 15.09375 -4.734375 C 17.144531 -4.734375 18.773438 -5.367188 19.984375 -6.640625 C 21.191406 -7.921875 21.796875 -9.753906 21.796875 -12.140625 L 21.796875 -24.5625 Z M 27.546875 -24.5625 "/></g></g></g><g fill="#e3e7f8" fill-opacity="1"><g transform="translate(296.075255, 202.874987)"><g><path d="M 3.765625 -24.5625 L 9.515625 -24.5625 L 9.515625 0 L 3.765625 0 Z M 6.671875 -28.609375 C 5.628906 -28.609375 4.753906 -28.9375 4.046875 -29.59375 C 3.335938 -30.257812 2.984375 -31.082031 2.984375 -32.0625 C 2.984375 -33.039062 3.335938 -33.859375 4.046875 -34.515625 C 4.753906 -35.179688 5.628906 -35.515625 6.671875 -35.515625 C 7.710938 -35.515625 8.582031 -35.195312 9.28125 -34.5625 C 9.988281 -33.9375 10.34375 -33.148438 10.34375 -32.203125 C 10.34375 -31.191406 10 -30.335938 9.3125 -29.640625 C 8.625 -28.953125 7.742188 -28.609375 6.671875 -28.609375 Z M 6.671875 -28.609375 "/></g></g></g><g fill="#e3e7f8" fill-opacity="1"><g transform="translate(307.298143, 202.874987)"><g><path d="M 18.53125 -1.328125 C 17.863281 -0.773438 17.046875 -0.359375 16.078125 -0.078125 C 15.109375 0.191406 14.085938 0.328125 13.015625 0.328125 C 10.316406 0.328125 8.226562 -0.375 6.75 -1.78125 C 5.28125 -3.195312 4.546875 -5.253906 4.546875 -7.953125 L 4.546875 -19.78125 L 0.5 -19.78125 L 0.5 -24.375 L 4.546875 -24.375 L 4.546875 -29.984375 L 10.296875 -29.984375 L 10.296875 -24.375 L 16.875 -24.375 L 16.875 -19.78125 L 10.296875 -19.78125 L 10.296875 -8.09375 C 10.296875 -6.894531 10.585938 -5.984375 11.171875 -5.359375 C 11.753906 -4.734375 12.597656 -4.421875 13.703125 -4.421875 C 14.992188 -4.421875 16.066406 -4.753906 16.921875 -5.421875 Z M 18.53125 -1.328125 "/></g></g></g><g fill="#e3e7f8" fill-opacity="1"><g transform="translate(324.730504, 202.874987)"><g><path d="M 26.859375 -12.140625 C 26.859375 -11.742188 26.828125 -11.175781 26.765625 -10.4375 L 7.5 -10.4375 C 7.832031 -8.632812 8.710938 -7.203125 10.140625 -6.140625 C 11.566406 -5.078125 13.335938 -4.546875 15.453125 -4.546875 C 18.148438 -4.546875 20.375 -5.4375 22.125 -7.21875 L 25.203125 -3.6875 C 24.097656 -2.363281 22.703125 -1.363281 21.015625 -0.6875 C 19.328125 -0.0078125 17.425781 0.328125 15.3125 0.328125 C 12.613281 0.328125 10.238281 -0.207031 8.1875 -1.28125 C 6.132812 -2.351562 4.546875 -3.847656 3.421875 -5.765625 C 2.304688 -7.679688 1.75 -9.851562 1.75 -12.28125 C 1.75 -14.675781 2.289062 -16.832031 3.375 -18.75 C 4.46875 -20.664062 5.976562 -22.160156 7.90625 -23.234375 C 9.84375 -24.304688 12.019531 -24.84375 14.4375 -24.84375 C 16.832031 -24.84375 18.972656 -24.3125 20.859375 -23.25 C 22.742188 -22.195312 24.210938 -20.710938 25.265625 -18.796875 C 26.328125 -16.878906 26.859375 -14.660156 26.859375 -12.140625 Z M 14.4375 -20.234375 C 12.601562 -20.234375 11.046875 -19.6875 9.765625 -18.59375 C 8.492188 -17.507812 7.722656 -16.066406 7.453125 -14.265625 L 21.390625 -14.265625 C 21.140625 -16.035156 20.382812 -17.472656 19.125 -18.578125 C 17.875 -19.679688 16.3125 -20.234375 14.4375 -20.234375 Z M 14.4375 -20.234375 "/></g></g></g><g clip-path="url(#bb4a3cd4d0)"><path fill="#e3e7f8" d="M 65.429688 131.109375 L 122.351562 131.109375 C 123.265625 131.109375 124.179688 131.152344 125.089844 131.242188 C 126 131.332031 126.902344 131.464844 127.800781 131.644531 C 128.699219 131.824219 129.582031 132.046875 130.460938 132.3125 C 131.335938 132.578125 132.195312 132.882812 133.039062 133.234375 C 133.886719 133.585938 134.710938 133.976562 135.515625 134.40625 C 136.324219 134.835938 137.109375 135.308594 137.867188 135.816406 C 138.628906 136.324219 139.363281 136.867188 140.070312 137.449219 C 140.777344 138.027344 141.453125 138.640625 142.101562 139.289062 C 142.746094 139.933594 143.359375 140.613281 143.941406 141.320312 C 144.523438 142.027344 145.066406 142.761719 145.574219 143.519531 C 146.082031 144.28125 146.550781 145.066406 146.984375 145.871094 C 147.414062 146.679688 147.804688 147.503906 148.15625 148.347656 C 148.503906 149.195312 148.8125 150.054688 149.078125 150.929688 C 149.34375 151.804688 149.566406 152.691406 149.746094 153.589844 C 149.921875 154.484375 150.058594 155.390625 150.148438 156.300781 C 150.238281 157.210938 150.28125 158.121094 150.28125 159.039062 L 150.28125 215.960938 C 150.28125 216.875 150.238281 217.785156 150.148438 218.699219 C 150.058594 219.609375 149.921875 220.511719 149.746094 221.410156 C 149.566406 222.304688 149.34375 223.191406 149.078125 224.066406 C 148.8125 224.941406 148.503906 225.804688 148.15625 226.648438 C 147.804688 227.492188 147.414062 228.320312 146.984375 229.125 C 146.550781 229.933594 146.082031 230.714844 145.574219 231.476562 C 145.066406 232.238281 144.523438 232.972656 143.941406 233.679688 C 143.359375 234.386719 142.746094 235.0625 142.101562 235.707031 C 141.453125 236.355469 140.777344 236.96875 140.070312 237.550781 C 139.363281 238.128906 138.628906 238.675781 137.867188 239.183594 C 137.109375 239.691406 136.324219 240.160156 135.515625 240.589844 C 134.710938 241.023438 133.886719 241.414062 133.039062 241.761719 C 132.195312 242.113281 131.335938 242.421875 130.460938 242.6875 C 129.582031 242.953125 128.699219 243.175781 127.800781 243.351562 C 126.902344 243.53125 126 243.664062 125.089844 243.753906 C 124.179688 243.84375 123.265625 243.890625 122.351562 243.890625 L 65.429688 243.890625 C 64.515625 243.890625 63.601562 243.84375 62.691406 243.753906 C 61.78125 243.664062 60.878906 243.53125 59.980469 243.351562 C 59.082031 243.175781 58.199219 242.953125 57.320312 242.6875 C 56.445312 242.421875 55.585938 242.113281 54.742188 241.761719 C 53.894531 241.414062 53.070312 241.023438 52.261719 240.589844 C 51.457031 240.160156 50.671875 239.691406 49.914062 239.183594 C 49.152344 238.675781 48.417969 238.128906 47.710938 237.550781 C 47.003906 236.96875 46.328125 236.355469 45.679688 235.707031 C 45.035156 235.0625 44.421875 234.386719 43.839844 233.679688 C 43.257812 232.972656 42.714844 232.238281 42.207031 231.476562 C 41.699219 230.714844 41.230469 229.933594 40.796875 229.125 C 40.367188 228.320312 39.976562 227.492188 39.625 226.648438 C 39.277344 225.804688 38.96875 224.941406 38.703125 224.066406 C 38.4375 223.191406 38.214844 222.304688 38.035156 221.410156 C 37.859375 220.511719 37.722656 219.609375 37.632812 218.699219 C 37.542969 217.785156 37.5 216.875 37.5 215.960938 L 37.5 159.039062 C 37.5 158.121094 37.542969 157.210938 37.632812 156.300781 C 37.722656 155.390625 37.859375 154.484375 38.035156 153.589844 C 38.214844 152.691406 38.4375 151.804688 38.703125 150.929688 C 38.96875 150.054688 39.277344 149.195312 39.625 148.347656 C 39.976562 147.503906 40.367188 146.679688 40.796875 145.871094 C 41.230469 145.066406 41.699219 144.28125 42.207031 143.519531 C 42.714844 142.761719 43.257812 142.027344 43.839844 141.320312 C 44.421875 140.613281 45.035156 139.933594 45.679688 139.289062 C 46.328125 138.640625 47.003906 138.027344 47.710938 137.449219 C 48.417969 136.867188 49.152344 136.324219 49.914062 135.816406 C 50.671875 135.308594 51.457031 134.835938 52.261719 134.40625 C 53.070312 133.976562 53.894531 133.585938 54.742188 133.234375 C 55.585938 132.882812 56.445312 132.578125 57.320312 132.3125 C 58.199219 132.046875 59.082031 131.824219 59.980469 131.644531 C 60.878906 131.464844 61.78125 131.332031 62.691406 131.242188 C 63.601562 131.152344 64.515625 131.109375 65.429688 131.109375 Z M 65.429688 131.109375 " fill-opacity="1" fill-rule="nonzero"/></g><g clip-path="url(#8ccbe235f3)"><path fill="#ff66c4" d="M 133.703125 199.746094 C 133.703125 206.515625 128.21875 211.996094 121.453125 211.996094 L 72.445312 211.996094 C 62.300781 211.996094 54.0625 203.773438 54.0625 193.625 C 54.0625 183.46875 62.300781 175.242188 72.445312 175.242188 C 73.503906 175.242188 74.550781 175.335938 75.570312 175.507812 C 79.769531 168.039062 87.769531 162.992188 96.949219 162.992188 C 110.484375 162.992188 121.453125 173.957031 121.453125 187.496094 C 128.21875 187.496094 133.703125 192.976562 133.703125 199.746094 " fill-opacity="1" fill-rule="nonzero"/></g><g clip-path="url(#cbb97dcbd4)"><path fill="#e3e7f8" d="M 71.640625 209.175781 L 80.054688 209.175781 C 80.386719 209.175781 80.65625 208.910156 80.65625 208.578125 L 80.65625 207.734375 C 80.65625 205.234375 81.816406 203.003906 83.625 201.550781 C 83.96875 201.277344 83.933594 200.726562 83.535156 200.539062 C 82.640625 200.121094 81.640625 199.886719 80.589844 199.886719 L 77.371094 199.886719 C 73.519531 199.886719 70.398438 203.007812 70.398438 206.859375 L 70.398438 207.941406 C 70.398438 208.625 70.953125 209.175781 71.640625 209.175781 " fill-opacity="1" fill-rule="nonzero"/></g><path fill="#e3e7f8" d="M 73.488281 193.503906 C 73.488281 196.539062 75.949219 199 78.980469 199 C 82.015625 199 84.476562 196.539062 84.476562 193.503906 C 84.476562 190.472656 82.015625 188.011719 78.980469 188.011719 C 75.949219 188.011719 73.488281 190.472656 73.488281 193.503906 " fill-opacity="1" fill-rule="nonzero"/><g clip-path="url(#8131a50e0c)"><path fill="#e3e7f8" d="M 110.40625 199.886719 L 107.179688 199.886719 C 106.085938 199.886719 105.042969 200.144531 104.121094 200.597656 C 103.722656 200.792969 103.65625 201.324219 104 201.605469 C 105.773438 203.058594 106.90625 205.265625 106.90625 207.734375 L 106.90625 208.578125 C 106.90625 208.910156 107.175781 209.175781 107.507812 209.175781 L 116.140625 209.175781 C 116.824219 209.175781 117.378906 208.625 117.378906 207.941406 L 117.378906 206.859375 C 117.378906 203.007812 114.257812 199.886719 110.40625 199.886719 " fill-opacity="1" fill-rule="nonzero"/></g><path fill="#e3e7f8" d="M 108.792969 188.011719 C 105.761719 188.011719 103.300781 190.472656 103.300781 193.503906 C 103.300781 196.539062 105.761719 199 108.792969 199 C 111.832031 199 114.289062 196.539062 114.289062 193.503906 C 114.289062 190.472656 111.832031 188.011719 108.792969 188.011719 " fill-opacity="1" fill-rule="nonzero"/><g clip-path="url(#c7368a63d5)"><path fill="#e3e7f8" d="M 93.78125 199.648438 C 97.765625 199.648438 100.996094 196.417969 100.996094 192.433594 C 100.996094 188.449219 97.765625 185.21875 93.78125 185.21875 C 89.796875 185.21875 86.566406 188.449219 86.566406 192.433594 C 86.566406 196.417969 89.796875 199.648438 93.78125 199.648438 " fill-opacity="1" fill-rule="nonzero"/></g><g clip-path="url(#ffb0759d75)"><path fill="#e3e7f8" d="M 82.511719 208.550781 L 82.511719 212.953125 C 82.511719 212.988281 82.539062 213.015625 82.570312 213.015625 L 104.992188 213.015625 C 105.023438 213.015625 105.050781 212.988281 105.050781 212.953125 L 105.050781 208.550781 C 105.050781 204.28125 101.585938 200.816406 97.3125 200.816406 L 90.25 200.816406 C 85.976562 200.816406 82.511719 204.28125 82.511719 208.550781 " fill-opacity="1" fill-rule="nonzero"/></g></svg>